#!OML:ASF H:\Terrain\Patient Classification 1\Takeo\Monday\TakeoMonday.ASF
:FULLY-SPECIFIED
:DEGREES
563
root 17.9532 17.6455 0.968114 -2.83093 -22.0055 -1.8219
lowerback 3.55905 7.90487 5.64802
upperback 0.701419 10.75 1.74503
thorax -0.555595 5.36048 -1.65863
lowerneck -12.6133 -7.90415 -4.49604
upperneck 2.02942 -10.566 11.367
head 3.51453 -4.79085 3.42736
rclavicle -4.51365e-014 -1.82882e-014
rhumerus 69.138 30.9894 -73.7764
rradius 44.8078
rwrist -48.2208
rhand -50.9881 24.359
rfingers 7.12502
rthumb -23.5372 -4.22087
lclavicle -4.51365e-014 -1.82882e-014
lhumerus 36.6462 -3.52512 44.3324
lradius 84.5375
lwrist 27.21
lhand -20.5685 20.8626
lfingers 7.12502
lthumb 5.79096 50.7635
rfemur 11.8229 -9.80043 12.2185
rtibia 35.264
rfoot -3.66474 -38.6422
rtoes 1.67666
lfemur -12.5464 -11.7857 -21.4076
ltibia 32.421
lfoot -11.6994 -1.68946
ltoes -4.48551
564
root 17.9458 17.6577 0.993783 -2.65841 -21.6817 -1.75899
lowerback 2.8971 7.6298 5.21185
upperback 1.07199 10.3085 2.18761
thorax 0.00641453 5.15812 -0.856899
lowerneck -12.792 -7.78117 -5.57212
upperneck 1.79179 -10.2317 11.6981
head 3.5197 -4.62399 3.72305
rclavicle -6.90031e-014 -1.59028e-014
rhumerus 70.7952 32.9406 -72.1939
rradius 45.4994
rwrist -48.3826
rhand -51.149 26.1399
rfingers 7.12502
rthumb -23.6915 -2.42001
lclavicle -6.90031e-014 -1.59028e-014
lhumerus 35.9577 -1.6344 45.3993
lradius 85.054
lwrist 27.8049
lhand -20.0319 21.9897
lfingers 7.12502
lthumb 6.30898 51.8757
rfemur 11.7725 -9.65686 12.2433
rtibia 35.1884
rfoot -2.51076 -38.4446
rtoes 0.0134845
lfemur -12.6352 -12.1121 -21.4891
ltibia 32.4129
lfoot -11.9211 -1.71919
ltoes -5.91977
565
root 17.9342 17.6612 1.00656 -2.53073 -21.3432 -2.0009
lowerback 2.82471 7.67417 5.36748
upperback 1.17053 10.3611 2.12037
thorax 0.190919 5.19059 -0.983506
lowerneck -12.8102 -7.81767 -5.28853
upperneck 1.42977 -10.3057 11.942
head 3.42124 -4.65707 3.75095
rclavicle 1.54331e-013 1.66979e-014
rhumerus 71.5182 33.515 -71.9368
rradius 46.037
rwrist -47.8157
rhand -50.6375 28.5474
rfingers 7.12502
rthumb -23.2009 -0.0751699
lclavicle 1.54331e-013 1.66979e-014
lhumerus 36.2591 -0.947531 45.8149
lradius 85.3409
lwrist 28.0426
lhand -20.0567 22.4856
lfingers 7.12502
lthumb 6.28507 52.3723
rfemur 11.8507 -9.56345 12.6186
rtibia 35.1224
rfoot -1.25467 -38.286
rtoes -0.220814
lfemur -12.6308 -12.2944 -21.2271
ltibia 32.3786
lfoot -11.9178 -1.87943
ltoes -7.02004
566
root 17.9197 17.6619 1.02062 -2.51286 -21.0192 -2.45247
lowerback 3.06256 7.68533 5.67938
upperback 1.09964 10.4045 2.15453
thorax 0.0371451 5.20805 -1.15225
lowerneck -12.5334 -7.90029 -5.25325
upperneck 1.21296 -10.4295 12.2284
head 3.33923 -4.72195 3.83299
rclavicle -4.04713e-014 -1.11319e-014
rhumerus 71.568 34.2717 -72.2955
rradius 46.5361
rwrist -47.4243
rhand -49.3049 29.2674
rfingers 7.12502
rthumb -21.9218 0.489451
lclavicle -4.04713e-014 -1.11319e-014
lhumerus 36.2284 -0.527328 46.2056
lradius 85.5103
lwrist 28.131
lhand -20.2224 22.5831
lfingers 7.12502
lthumb 6.1251 52.4745
rfemur 12.1264 -9.48489 13.1714
rtibia 35.0872
rfoot -0.422507 -38.2046
rtoes -0.279787
lfemur -12.4363 -12.3389 -20.7684
ltibia 32.3019
lfoot -11.8051 -2.10001
ltoes -6.8722
567
root 17.9143 17.6614 1.04786 -2.67328 -20.7449 -2.26139
lowerback 3.06184 7.6701 5.47466
upperback 1.07567 10.3803 2.05003
thorax -0.00538477 5.19507 -1.15318
lowerneck -12.4061 -7.95305 -5.27243
upperneck 1.25837 -10.5219 12.4457
head 3.35594 -4.76164 3.89656
rclavicle -7.70291e-015 2.14687e-014
rhumerus 71.902 35.2097 -72.1378
rradius 47.1322
rwrist -47.8353
rhand -48.4299 27.0573
rfingers 7.12502
rthumb -21.0815 -1.81671
lclavicle -7.70291e-015 2.14687e-014
lhumerus 36.0778 0.00838003 46.602
lradius 85.7026
lwrist 28.4073
lhand -20.5148 22.1927
lfingers 7.12502
lthumb 5.84278 52.0921
rfemur 12.4127 -9.63037 12.7897
rtibia 35.0363
rfoot 0.262543 -37.7915
rtoes -0.513591
lfemur -12.2058 -12.4924 -21.0546
ltibia 32.222
lfoot -11.9529 -2.21737
ltoes -6.7332
568
root 17.9126 17.6553 1.07476 -2.71746 -20.4448 -1.99574
lowerback 2.8681 7.5868 5.17553
upperback 0.997142 10.2523 1.9452
thorax -0.0196069 5.13005 -1.08162
lowerneck -12.3779 -7.90492 -5.2073
upperneck 1.58641 -10.5079 12.5223
head 3.45092 -4.74149 3.90641
rclavicle -2.65253e-014 -8.34896e-015
rhumerus 72.8017 36.2462 -70.9158
rradius 47.9164
rwrist -48.7384
rhand -48.7259 24.7855
rfingers 7.12502
rthumb -21.3658 -4.05656
lclavicle -2.65253e-014 -8.34896e-015
lhumerus 35.6227 0.65285 46.9281
lradius 86.0652
lwrist 28.6608
lhand -20.5754 22.2279
lfingers 7.12502
lthumb 5.78428 52.129
rfemur 12.5625 -9.82911 12.3114
rtibia 34.9922
rfoot 0.598503 -37.3532
rtoes -0.404775
lfemur -12.139 -12.6943 -21.3922
ltibia 32.1032
lfoot -12.1155 -2.39231
ltoes -5.61137
569
root 17.9039 17.6563 1.09609 -2.58405 -20.1736 -2.29628
lowerback 2.75484 7.57355 5.39097
upperback 0.885954 10.2373 1.98469
thorax -0.042383 5.12042 -1.14667
lowerneck -12.1423 -7.92545 -5.33223
upperneck 1.72727 -10.5554 12.7368
head 3.4804 -4.76102 3.99186
rclavicle -6.48535e-015 -5.56597e-015
rhumerus 73.6452 36.9927 -69.7156
rradius 48.4219
rwrist -49.0361
rhand -49.0318 25.6949
rfingers 7.12502
rthumb -21.6596 -3.11356
lclavicle -6.48535e-015 -5.56597e-015
lhumerus 35.324 1.11876 47.3034
lradius 86.4611
lwrist 28.4832
lhand -20.3045 23.5052
lfingers 7.12502
lthumb 6.0458 53.3989
rfemur 12.6258 -9.83013 12.6321
rtibia 34.9962
rfoot 1.31519 -37.1274
rtoes -1.33472
lfemur -12.047 -12.8156 -21.0859
ltibia 31.9085
lfoot -12.0971 -2.66611
ltoes -3.73439
570
root 17.8973 17.6675 1.11629 -2.38084 -19.9717 -2.62004
lowerback 2.55471 7.62175 5.64463
upperback 0.810915 10.2963 2.0492
thorax 0.026723 5.15015 -1.18991
lowerneck -11.5229 -7.9775 -5.69894
upperneck 1.38897 -10.5859 13.1354
head 3.32707 -4.79744 4.1926
rclavicle -7.37864e-014 -2.50469e-014
rhumerus 74.1187 37.6491 -69.3005
rradius 48.5856
rwrist -48.7687
rhand -48.3473 28.2116
rfingers 7.12502
rthumb -21.0021 -0.671219
lclavicle -7.37864e-014 -2.50469e-014
lhumerus 35.2444 1.51737 47.8384
lradius 86.7346
lwrist 28.3963
lhand -19.9421 24.5958
lfingers 7.12502
lthumb 6.39575 54.4793
rfemur 12.5581 -9.79499 13.0135
rtibia 35.0256
rfoot 2.00602 -36.9742
rtoes -0.980131
lfemur -11.9802 -12.9597 -20.7508
ltibia 31.675
lfoot -11.9804 -2.81559
ltoes -3.04652
571
root 17.8927 17.6777 1.1294 -2.37155 -19.8058 -2.50405
lowerback 2.54307 7.64414 5.39553
upperback 0.700441 10.3258 2.04299
thorax -0.121667 5.15985 -1.07658
lowerneck -10.6785 -8.05158 -6.20674
upperneck 0.906501 -10.6319 13.6646
head 3.1123 -4.85243 4.46424
rclavicle -8.38002e-014 -1.19271e-014
rhumerus 74.1619 38.4002 -69.6819
rradius 48.384
rwrist -47.7876
rhand -47.9428 26.3556
rfingers 7.12502
rthumb -20.6134 -2.56986
lclavicle -8.38002e-014 -1.19271e-014
lhumerus 34.9928 1.90724 48.3836
lradius 86.9348
lwrist 28.5608
lhand -19.8959 25.0118
lfingers 7.12502
lthumb 6.44028 54.8939
rfemur 12.5577 -9.71821 12.8921
rtibia 35.028
rfoot 1.33511 -36.9301
rtoes -0.0763512
lfemur -11.8918 -13.1549 -20.8657
ltibia 31.4425
lfoot -11.8494 -2.85538
ltoes -2.21756
572
root 17.8829 17.6818 1.14029 -2.51416 -19.6758 -2.23636
lowerback 2.65918 7.75483 5.04455
upperback 0.617829 10.4776 1.9832
thorax -0.313751 5.23081 -0.981187
lowerneck -10.1021 -8.2647 -6.80024
upperneck 0.661017 -10.8795 14.2353
head 3.04076 -4.98903 4.73269
rclavicle 1.39149e-014 -1.03368e-014
rhumerus 74.5131 38.7938 -69.1144
rradius 48.3832
rwrist -47.0629
rhand -48.2684 24.0565
rfingers 7.12502
rthumb -20.9263 -4.83469
lclavicle 1.39149e-014 -1.03368e-014
lhumerus 34.9289 2.18454 49.0067
lradius 87.1255
lwrist 28.8923
lhand -19.9106 25.3094
lfingers 7.12502
lthumb 6.42616 55.1919
rfemur 12.6854 -9.68774 12.5593
rtibia 34.9589
rfoot 1.59375 -36.9743
rtoes 0.0152844
lfemur -11.7397 -13.325 -21.1267
ltibia 31.2888
lfoot -11.7532 -2.97726
ltoes -0.293379
573
root 17.8742 17.6841 1.1602 -2.53717 -19.484 -2.33796
lowerback 2.66616 7.83733 5.13625
upperback 0.521878 10.5947 1.97013
thorax -0.391791 5.28604 -1.05166
lowerneck -9.8675 -8.51395 -6.98845
upperneck 0.840167 -11.2286 14.2774
head 3.10542 -5.16428 4.74951
rclavicle -6.26793e-014 -7.95139e-016
rhumerus 75.4303 39.08 -67.1599
rradius 49.0739
rwrist -47.7912
rhand -48.416 24.4858
rfingers 7.12502
rthumb -21.0681 -4.38967
lclavicle -6.26793e-014 -7.95139e-016
lhumerus 34.8671 2.46138 49.6673
lradius 87.3987
lwrist 29.3843
lhand -19.6656 25.3508
lfingers 7.12502
lthumb 6.66266 55.2259
rfemur 12.8802 -9.83929 12.5584
rtibia 34.8676
rfoot 3.39384 -36.9252
rtoes 1.50294
lfemur -11.5724 -13.5346 -21.0434
ltibia 31.2005
lfoot -11.6654 -3.15493
ltoes 1.28527
574
root 17.8705 17.6868 1.18482 -2.39699 -19.2298 -2.84174
lowerback 2.59519 7.81157 5.59168
upperback 0.405959 10.5723 2.06044
thorax -0.409363 5.27115 -1.19532
lowerneck -9.75895 -8.61747 -6.76966
upperneck 1.16264 -11.413 13.9263
head 3.16578 -5.25966 4.59112
rclavicle -2.1183e-014 -3.18055e-015
rhumerus 76.1483 39.5943 -65.752
rradius 49.7319
rwrist -48.5844
rhand -48.3465 24.2311
rfingers 7.12502
rthumb -21.0013 -4.65187
lclavicle -2.1183e-014 -3.18055e-015
lhumerus 34.6146 2.79016 50.1394
lradius 87.7396
lwrist 29.5614
lhand -19.6099 25.2641
lfingers 7.12502
lthumb 6.71645 55.1376
rfemur 13.1005 -10.0251 12.9877
rtibia 34.7726
rfoot 4.20135 -36.8022
rtoes 2.72461
lfemur -11.4327 -13.7102 -20.5855
ltibia 31.1488
lfoot -11.6107 -3.26166
ltoes 1.47786
575
root 17.8676 17.6832 1.19949 -2.30425 -19.0849 -3.07411
lowerback 2.52683 7.79593 5.72703
upperback 0.332638 10.5535 2.09534
thorax -0.430955 5.25958 -1.22645
lowerneck -9.59442 -8.56414 -6.86584
upperneck 1.2731 -11.3651 14.1558
head 3.18855 -5.23208 4.68416
rclavicle -1.77167e-014 -9.93923e-015
rhumerus 76.6362 40.1479 -65.2274
rradius 49.9291
rwrist -48.8768
rhand -47.796 24.2302
rfingers 7.12502
rthumb -20.4724 -4.71043
lclavicle -1.77167e-014 -9.93923e-015
lhumerus 34.3229 3.13663 50.5354
lradius 88.0454
lwrist 29.384
lhand -19.6551 25.3558
lfingers 7.12502
lthumb 6.67276 55.2307
rfemur 13.1793 -9.98935 13.2236
rtibia 34.723
rfoot 4.14005 -36.6625
rtoes 2.43241
lfemur -11.4153 -13.8659 -20.3634
ltibia 31.1423
lfoot -11.6344 -3.29143
ltoes 2.09051
576
root 17.8638 17.6831 1.20616 -2.39997 -19.0421 -2.87242
lowerback 2.59253 7.81342 5.4547
upperback 0.317398 10.5757 1.99813
thorax -0.511866 5.26972 -1.19505
lowerneck -9.79728 -8.61745 -7.23519
upperneck 1.72211 -11.4739 14.6582
head 3.42367 -5.24817 4.86996
rclavicle 1.1281e-014 5.96354e-015
rhumerus 77.3497 40.5693 -64.6668
rradius 49.8766
rwrist -49.202
rhand -47.4492 24.4611
rfingers 7.12502
rthumb -20.1391 -4.51502
lclavicle 1.1281e-014 5.96354e-015
lhumerus 34.0984 3.51917 50.9459
lradius 88.2842
lwrist 29.4381
lhand -19.6136 24.9211
lfingers 7.12502
lthumb 6.71285 54.7947
rfemur 13.2171 -9.75541 13.0744
rtibia 34.7376
rfoot 4.12892 -36.4803
rtoes 2.69533
lfemur -11.4521 -14.0218 -20.5674
ltibia 31.1683
lfoot -11.6363 -3.2201
ltoes 2.65717
577
root 17.8599 17.6882 1.21042 -2.48774 -18.9296 -2.63178
lowerback 2.66144 7.82281 5.14856
upperback 0.303575 10.5857 1.88548
thorax -0.596972 5.27398 -1.16194
lowerneck -10.0456 -8.72118 -7.46584
upperneck 2.1824 -11.6521 14.9269
head 3.65403 -5.30218 4.95525
rclavicle 2.98177e-016 -1.98785e-014
rhumerus 78.1521 40.8941 -63.8343
rradius 49.6508
rwrist -49.397
rhand -47.8312 25.2782
rfingers 7.12502
rthumb -20.5062 -3.65886
lclavicle 2.98177e-016 -1.98785e-014
lhumerus 33.954 3.89685 51.2853
lradius 88.5547
lwrist 29.5834
lhand -19.7344 24.3037
lfingers 7.12502
lthumb 6.59622 54.181
rfemur 13.2213 -9.57378 12.9106
rtibia 34.8018
rfoot 4.21594 -36.4919
rtoes 4.47889
lfemur -11.5078 -14.122 -20.8159
ltibia 31.1834
lfoot -11.6552 -3.11813
ltoes 1.39052
